{
    "asset" : {
        "generator" : "Khronos glTF Blender I/O v1.7.33",
        "version" : "2.0"
    },
    "scene" : 0,
    "scenes" : [
        {
            "name" : "Scene",
            "nodes" : [
                6,
                7
            ]
        }
    ],
    "nodes" : [
        {
            "mesh" : 0,
            "name" : "Mesh_109"
        },
        {
            "mesh" : 1,
            "name" : "Mesh_110"
        },
        {
            "mesh" : 2,
            "name" : "Mesh_111"
        },
        {
            "mesh" : 3,
            "name" : "Mesh_112"
        },
        {
            "children" : [
                0,
                1,
                2,
                3
            ],
            "name" : "Cuerpo.obj.cleaner"
        },
        {
            "children" : [
                4
            ],
            "name" : "RootNode (model correction matrix)"
        },
        {
            "children" : [
                5
            ],
            "name" : "RootNode (gltf orientation matrix)",
            "rotation" : [
                -0.7071068286895752,
                0,
                0,
                0.7071068286895752
            ]
        },
        {
            "mesh" : 4,
            "name" : "Cube"
        }
    ],
    "materials" : [
        {
            "doubleSided" : true,
            "name" : "phongE7SG",
            "pbrMetallicRoughness" : {
                "baseColorFactor" : [
                    0.5,
                    0.05999999865889549,
                    0.05999999865889549,
                    1
                ],
                "metallicFactor" : 0,
                "roughnessFactor" : 0.6000000238418579
            }
        },
        {
            "doubleSided" : true,
            "name" : "Material",
            "pbrMetallicRoughness" : {
                "baseColorFactor" : [
                    0.800000011920929,
                    0.800000011920929,
                    0.800000011920929,
                    1
                ],
                "metallicFactor" : 0,
                "roughnessFactor" : 0.4000000059604645
            }
        }
    ],
    "meshes" : [
        {
            "name" : "Mesh_109",
            "primitives" : [
                {
                    "attributes" : {
                        "POSITION" : 0,
                        "NORMAL" : 1
                    },
                    "indices" : 2,
                    "material" : 0
                }
            ]
        },
        {
            "name" : "Mesh_110",
            "primitives" : [
                {
                    "attributes" : {
                        "POSITION" : 3,
                        "NORMAL" : 4
                    },
                    "indices" : 5,
                    "material" : 0
                }
            ]
        },
        {
            "name" : "Mesh_111",
            "primitives" : [
                {
                    "attributes" : {
                        "POSITION" : 6,
                        "NORMAL" : 7
                    },
                    "indices" : 8,
                    "material" : 0
                }
            ]
        },
        {
            "name" : "Mesh_112",
            "primitives" : [
                {
                    "attributes" : {
                        "POSITION" : 9,
                        "NORMAL" : 10
                    },
                    "indices" : 11,
                    "material" : 0
                }
            ]
        },
        {
            "name" : "Cube",
            "primitives" : [
                {
                    "attributes" : {
                        "POSITION" : 12,
                        "NORMAL" : 13,
                        "TEXCOORD_0" : 14
                    },
                    "indices" : 15,
                    "material" : 1
                }
            ]
        }
    ],
    "accessors" : [
        {
            "bufferView" : 0,
            "componentType" : 5126,
            "count" : 18,
            "max" : [
                25.17230224609375,
                6.771944046020508,
                -20.62238121032715
            ],
            "min" : [
                11.652533531188965,
                -0.7937679886817932,
                -47.96529769897461
            ],
            "type" : "VEC3"
        },
        {
            "bufferView" : 1,
            "componentType" : 5126,
            "count" : 18,
            "type" : "VEC3"
        },
        {
            "bufferView" : 2,
            "componentType" : 5123,
            "count" : 72,
            "type" : "SCALAR"
        },
        {
            "bufferView" : 3,
            "componentType" : 5126,
            "count" : 3531,
            "max" : [
                33.6708984375,
                9.754332542419434,
                -0.5647950172424316
            ],
            "min" : [
                4.951930999755859,
                -19.992067337036133,
                -59.223838806152344
            ],
            "type" : "VEC3"
        },
        {
            "bufferView" : 4,
            "componentType" : 5126,
            "count" : 3531,
            "type" : "VEC3"
        },
        {
            "bufferView" : 5,
            "componentType" : 5123,
            "count" : 21168,
            "type" : "SCALAR"
        },
        {
            "bufferView" : 6,
            "componentType" : 5126,
            "count" : 5759,
            "max" : [
                -3.0286669731140137,
                17.508241653442383,
                0.012075000442564487
            ],
            "min" : [
                -32.397010803222656,
                -17.943134307861328,
                -59.41798400878906
            ],
            "type" : "VEC3"
        },
        {
            "bufferView" : 7,
            "componentType" : 5126,
            "count" : 5759,
            "type" : "VEC3"
        },
        {
            "bufferView" : 8,
            "componentType" : 5123,
            "count" : 34524,
            "type" : "SCALAR"
        },
        {
            "bufferView" : 9,
            "componentType" : 5126,
            "count" : 32328,
            "max" : [
                33.21818542480469,
                19.525793075561523,
                12.223058700561523
            ],
            "min" : [
                -4.659977912902832,
                -6.274366855621338,
                -59.43259048461914
            ],
            "type" : "VEC3"
        },
        {
            "bufferView" : 10,
            "componentType" : 5126,
            "count" : 32328,
            "type" : "VEC3"
        },
        {
            "bufferView" : 11,
            "componentType" : 5123,
            "count" : 193542,
            "type" : "SCALAR"
        },
        {
            "bufferView" : 12,
            "componentType" : 5126,
            "count" : 24,
            "max" : [
                1,
                1,
                1
            ],
            "min" : [
                -1,
                -1,
                -1
            ],
            "type" : "VEC3"
        },
        {
            "bufferView" : 13,
            "componentType" : 5126,
            "count" : 24,
            "type" : "VEC3"
        },
        {
            "bufferView" : 14,
            "componentType" : 5126,
            "count" : 24,
            "type" : "VEC2"
        },
        {
            "bufferView" : 15,
            "componentType" : 5123,
            "count" : 36,
            "type" : "SCALAR"
        }
    ],
    "bufferViews" : [
        {
            "buffer" : 0,
            "byteLength" : 216,
            "byteOffset" : 0
        },
        {
            "buffer" : 0,
            "byteLength" : 216,
            "byteOffset" : 216
        },
        {
            "buffer" : 0,
            "byteLength" : 144,
            "byteOffset" : 432
        },
        {
            "buffer" : 0,
            "byteLength" : 42372,
            "byteOffset" : 576
        },
        {
            "buffer" : 0,
            "byteLength" : 42372,
            "byteOffset" : 42948
        },
        {
            "buffer" : 0,
            "byteLength" : 42336,
            "byteOffset" : 85320
        },
        {
            "buffer" : 0,
            "byteLength" : 69108,
            "byteOffset" : 127656
        },
        {
            "buffer" : 0,
            "byteLength" : 69108,
            "byteOffset" : 196764
        },
        {
            "buffer" : 0,
            "byteLength" : 69048,
            "byteOffset" : 265872
        },
        {
            "buffer" : 0,
            "byteLength" : 387936,
            "byteOffset" : 334920
        },
        {
            "buffer" : 0,
            "byteLength" : 387936,
            "byteOffset" : 722856
        },
        {
            "buffer" : 0,
            "byteLength" : 387084,
            "byteOffset" : 1110792
        },
        {
            "buffer" : 0,
            "byteLength" : 288,
            "byteOffset" : 1497876
        },
        {
            "buffer" : 0,
            "byteLength" : 288,
            "byteOffset" : 1498164
        },
        {
            "buffer" : 0,
            "byteLength" : 192,
            "byteOffset" : 1498452
        },
        {
            "buffer" : 0,
            "byteLength" : 72,
            "byteOffset" : 1498644
        }
    ],
    "buffers" : [
        {
            "byteLength" : 1498716,
            "uri" : "data:application/octet-stream;base64,"
        }
    ]
}
