{
    "asset" : {
        "generator" : "Khronos glTF Blender I/O v1.7.33",
        "version" : "2.0"
    },
    "scene" : 0,
    "scenes" : [
        {
            "name" : "Scene",
            "nodes" : [
                3,
                4
            ]
        }
    ],
    "nodes" : [
        {
            "mesh" : 0,
            "name" : "Mesh_103.001"
        },
        {
            "children" : [
                0
            ],
            "name" : "Cuerpo.obj.cleaner"
        },
        {
            "children" : [
                1
            ],
            "name" : "RootNode (model correction matrix)"
        },
        {
            "children" : [
                2
            ],
            "name" : "RootNode (gltf orientation matrix)",
            "rotation" : [
                -0.7071068286895752,
                0,
                0,
                0.7071068286895752
            ]
        },
        {
            "mesh" : 1,
            "name" : "Cube"
        }
    ],
    "materials" : [
        {
            "doubleSided" : true,
            "name" : "phongE5SG",
            "pbrMetallicRoughness" : {
                "baseColorFactor" : [
                    1,
                    0.7699999809265137,
                    0.5600000023841858,
                    1
                ],
                "metallicFactor" : 0,
                "roughnessFactor" : 0.6000000238418579
            }
        },
        {
            "doubleSided" : true,
            "name" : "Material",
            "pbrMetallicRoughness" : {
                "baseColorFactor" : [
                    0.800000011920929,
                    0.800000011920929,
                    0.800000011920929,
                    1
                ],
                "metallicFactor" : 0,
                "roughnessFactor" : 0.4000000059604645
            }
        }
    ],
    "meshes" : [
        {
            "name" : "Mesh_103.001",
            "primitives" : [
                {
                    "attributes" : {
                        "POSITION" : 0,
                        "NORMAL" : 1
                    },
                    "indices" : 2,
                    "material" : 0
                }
            ]
        },
        {
            "name" : "Cube",
            "primitives" : [
                {
                    "attributes" : {
                        "POSITION" : 3,
                        "NORMAL" : 4,
                        "TEXCOORD_0" : 5
                    },
                    "indices" : 6,
                    "material" : 1
                }
            ]
        }
    ],
    "accessors" : [
        {
            "bufferView" : 0,
            "componentType" : 5126,
            "count" : 13177,
            "max" : [
                21.16550064086914,
                -1.894279956817627,
                -91.30470275878906
            ],
            "min" : [
                -24.410600662231445,
                -25.141700744628906,
                -140.13099670410156
            ],
            "type" : "VEC3"
        },
        {
            "bufferView" : 1,
            "componentType" : 5126,
            "count" : 13177,
            "type" : "VEC3"
        },
        {
            "bufferView" : 2,
            "componentType" : 5123,
            "count" : 79008,
            "type" : "SCALAR"
        },
        {
            "bufferView" : 3,
            "componentType" : 5126,
            "count" : 24,
            "max" : [
                1,
                1,
                1
            ],
            "min" : [
                -1,
                -1,
                -1
            ],
            "type" : "VEC3"
        },
        {
            "bufferView" : 4,
            "componentType" : 5126,
            "count" : 24,
            "type" : "VEC3"
        },
        {
            "bufferView" : 5,
            "componentType" : 5126,
            "count" : 24,
            "type" : "VEC2"
        },
        {
            "bufferView" : 6,
            "componentType" : 5123,
            "count" : 36,
            "type" : "SCALAR"
        }
    ],
    "bufferViews" : [
        {
            "buffer" : 0,
            "byteLength" : 158124,
            "byteOffset" : 0
        },
        {
            "buffer" : 0,
            "byteLength" : 158124,
            "byteOffset" : 158124
        },
        {
            "buffer" : 0,
            "byteLength" : 158016,
            "byteOffset" : 316248
        },
        {
            "buffer" : 0,
            "byteLength" : 288,
            "byteOffset" : 474264
        },
        {
            "buffer" : 0,
            "byteLength" : 288,
            "byteOffset" : 474552
        },
        {
            "buffer" : 0,
            "byteLength" : 192,
            "byteOffset" : 474840
        },
        {
            "buffer" : 0,
            "byteLength" : 72,
            "byteOffset" : 475032
        }
    ],
    "buffers" : [
        {
            "byteLength" : 475104,
            "uri" : "data:application/octet-stream;base64,"
        }
    ]
}
