{
    "asset" : {
        "generator" : "Khronos glTF Blender I/O v1.7.33",
        "version" : "2.0"
    },
    "scene" : 0,
    "scenes" : [
        {
            "name" : "Scene",
            "nodes" : [
                7,
                8
            ]
        }
    ],
    "nodes" : [
        {
            "mesh" : 0,
            "name" : "Mesh_104"
        },
        {
            "mesh" : 1,
            "name" : "Mesh_105"
        },
        {
            "mesh" : 2,
            "name" : "Mesh_106"
        },
        {
            "mesh" : 3,
            "name" : "Mesh_107"
        },
        {
            "mesh" : 4,
            "name" : "Mesh_108"
        },
        {
            "children" : [
                0,
                1,
                2,
                3,
                4
            ],
            "name" : "Cuerpo.obj.cleaner"
        },
        {
            "children" : [
                5
            ],
            "name" : "RootNode (model correction matrix)"
        },
        {
            "children" : [
                6
            ],
            "name" : "RootNode (gltf orientation matrix)",
            "rotation" : [
                -0.7071068286895752,
                0,
                0,
                0.7071068286895752
            ]
        },
        {
            "mesh" : 5,
            "name" : "Cube"
        }
    ],
    "materials" : [
        {
            "doubleSided" : true,
            "name" : "phongE6SG",
            "pbrMetallicRoughness" : {
                "baseColorFactor" : [
                    0.6499999761581421,
                    0.20000000298023224,
                    0.20000000298023224,
                    1
                ],
                "metallicFactor" : 0,
                "roughnessFactor" : 0.6000000238418579
            }
        },
        {
            "doubleSided" : true,
            "name" : "Material",
            "pbrMetallicRoughness" : {
                "baseColorFactor" : [
                    0.800000011920929,
                    0.800000011920929,
                    0.800000011920929,
                    1
                ],
                "metallicFactor" : 0,
                "roughnessFactor" : 0.4000000059604645
            }
        }
    ],
    "meshes" : [
        {
            "name" : "Mesh_104",
            "primitives" : [
                {
                    "attributes" : {
                        "POSITION" : 0,
                        "NORMAL" : 1
                    },
                    "indices" : 2,
                    "material" : 0
                }
            ]
        },
        {
            "name" : "Mesh_105",
            "primitives" : [
                {
                    "attributes" : {
                        "POSITION" : 3,
                        "NORMAL" : 4
                    },
                    "indices" : 5,
                    "material" : 0
                }
            ]
        },
        {
            "name" : "Mesh_106",
            "primitives" : [
                {
                    "attributes" : {
                        "POSITION" : 6,
                        "NORMAL" : 7
                    },
                    "indices" : 8,
                    "material" : 0
                }
            ]
        },
        {
            "name" : "Mesh_107",
            "primitives" : [
                {
                    "attributes" : {
                        "POSITION" : 9,
                        "NORMAL" : 10
                    },
                    "indices" : 11,
                    "material" : 0
                }
            ]
        },
        {
            "name" : "Mesh_108",
            "primitives" : [
                {
                    "attributes" : {
                        "POSITION" : 12,
                        "NORMAL" : 13
                    },
                    "indices" : 14,
                    "material" : 0
                }
            ]
        },
        {
            "name" : "Cube",
            "primitives" : [
                {
                    "attributes" : {
                        "POSITION" : 15,
                        "NORMAL" : 16,
                        "TEXCOORD_0" : 17
                    },
                    "indices" : 18,
                    "material" : 1
                }
            ]
        }
    ],
    "accessors" : [
        {
            "bufferView" : 0,
            "componentType" : 5126,
            "count" : 6,
            "max" : [
                24.941600799560547,
                -8.299059867858887,
                -141.59800720214844
            ],
            "min" : [
                24.632699966430664,
                -8.814120292663574,
                -142.0760040283203
            ],
            "type" : "VEC3"
        },
        {
            "bufferView" : 1,
            "componentType" : 5126,
            "count" : 6,
            "type" : "VEC3"
        },
        {
            "bufferView" : 2,
            "componentType" : 5123,
            "count" : 6,
            "type" : "SCALAR"
        },
        {
            "bufferView" : 3,
            "componentType" : 5126,
            "count" : 1683,
            "max" : [
                29.85700035095215,
                -7.710410118103027,
                -114.63899993896484
            ],
            "min" : [
                19.027999877929688,
                -17.268600463867188,
                -142.47799682617188
            ],
            "type" : "VEC3"
        },
        {
            "bufferView" : 4,
            "componentType" : 5126,
            "count" : 1683,
            "type" : "VEC3"
        },
        {
            "bufferView" : 5,
            "componentType" : 5123,
            "count" : 10086,
            "type" : "SCALAR"
        },
        {
            "bufferView" : 6,
            "componentType" : 5126,
            "count" : 1705,
            "max" : [
                -12.15820026397705,
                -5.858689785003662,
                -108.38999938964844
            ],
            "min" : [
                -31.98240089416504,
                -16.70829963684082,
                -141.66099548339844
            ],
            "type" : "VEC3"
        },
        {
            "bufferView" : 7,
            "componentType" : 5126,
            "count" : 1705,
            "type" : "VEC3"
        },
        {
            "bufferView" : 8,
            "componentType" : 5123,
            "count" : 10218,
            "type" : "SCALAR"
        },
        {
            "bufferView" : 9,
            "componentType" : 5126,
            "count" : 2192,
            "max" : [
                26.94569969177246,
                5.528090000152588,
                -136.343994140625
            ],
            "min" : [
                -6.342480182647705,
                -15.223400115966797,
                -170.74200439453125
            ],
            "type" : "VEC3"
        },
        {
            "bufferView" : 10,
            "componentType" : 5126,
            "count" : 2192,
            "type" : "VEC3"
        },
        {
            "bufferView" : 11,
            "componentType" : 5123,
            "count" : 13140,
            "type" : "SCALAR"
        },
        {
            "bufferView" : 12,
            "componentType" : 5126,
            "count" : 7049,
            "max" : [
                30.800399780273438,
                -3.1905999183654785,
                -78.80239868164062
            ],
            "min" : [
                -32.03620147705078,
                -25.63960075378418,
                -116.31300354003906
            ],
            "type" : "VEC3"
        },
        {
            "bufferView" : 13,
            "componentType" : 5126,
            "count" : 7049,
            "type" : "VEC3"
        },
        {
            "bufferView" : 14,
            "componentType" : 5123,
            "count" : 42276,
            "type" : "SCALAR"
        },
        {
            "bufferView" : 15,
            "componentType" : 5126,
            "count" : 24,
            "max" : [
                1,
                1,
                1
            ],
            "min" : [
                -1,
                -1,
                -1
            ],
            "type" : "VEC3"
        },
        {
            "bufferView" : 16,
            "componentType" : 5126,
            "count" : 24,
            "type" : "VEC3"
        },
        {
            "bufferView" : 17,
            "componentType" : 5126,
            "count" : 24,
            "type" : "VEC2"
        },
        {
            "bufferView" : 18,
            "componentType" : 5123,
            "count" : 36,
            "type" : "SCALAR"
        }
    ],
    "bufferViews" : [
        {
            "buffer" : 0,
            "byteLength" : 72,
            "byteOffset" : 0
        },
        {
            "buffer" : 0,
            "byteLength" : 72,
            "byteOffset" : 72
        },
        {
            "buffer" : 0,
            "byteLength" : 12,
            "byteOffset" : 144
        },
        {
            "buffer" : 0,
            "byteLength" : 20196,
            "byteOffset" : 156
        },
        {
            "buffer" : 0,
            "byteLength" : 20196,
            "byteOffset" : 20352
        },
        {
            "buffer" : 0,
            "byteLength" : 20172,
            "byteOffset" : 40548
        },
        {
            "buffer" : 0,
            "byteLength" : 20460,
            "byteOffset" : 60720
        },
        {
            "buffer" : 0,
            "byteLength" : 20460,
            "byteOffset" : 81180
        },
        {
            "buffer" : 0,
            "byteLength" : 20436,
            "byteOffset" : 101640
        },
        {
            "buffer" : 0,
            "byteLength" : 26304,
            "byteOffset" : 122076
        },
        {
            "buffer" : 0,
            "byteLength" : 26304,
            "byteOffset" : 148380
        },
        {
            "buffer" : 0,
            "byteLength" : 26280,
            "byteOffset" : 174684
        },
        {
            "buffer" : 0,
            "byteLength" : 84588,
            "byteOffset" : 200964
        },
        {
            "buffer" : 0,
            "byteLength" : 84588,
            "byteOffset" : 285552
        },
        {
            "buffer" : 0,
            "byteLength" : 84552,
            "byteOffset" : 370140
        },
        {
            "buffer" : 0,
            "byteLength" : 288,
            "byteOffset" : 454692
        },
        {
            "buffer" : 0,
            "byteLength" : 288,
            "byteOffset" : 454980
        },
        {
            "buffer" : 0,
            "byteLength" : 192,
            "byteOffset" : 455268
        },
        {
            "buffer" : 0,
            "byteLength" : 72,
            "byteOffset" : 455460
        }
    ],
    "buffers" : [
        {
            "byteLength" : 455532,
            "uri" : "data:application/octet-stream;base64,"
        }
    ]
}
