{
    "asset" : {
        "generator" : "Khronos glTF Blender I/O v1.7.33",
        "version" : "2.0"
    },
    "scene" : 0,
    "scenes" : [
        {
            "name" : "Scene",
            "nodes" : [
                6,
                7
            ]
        }
    ],
    "nodes" : [
        {
            "mesh" : 0,
            "name" : "Mesh_86"
        },
        {
            "mesh" : 1,
            "name" : "Mesh_87"
        },
        {
            "mesh" : 2,
            "name" : "Mesh_88"
        },
        {
            "mesh" : 3,
            "name" : "Mesh_89"
        },
        {
            "children" : [
                0,
                1,
                2,
                3
            ],
            "name" : "Cuerpo.obj.cleaner"
        },
        {
            "children" : [
                4
            ],
            "name" : "RootNode (model correction matrix)"
        },
        {
            "children" : [
                5
            ],
            "name" : "RootNode (gltf orientation matrix)",
            "rotation" : [
                -0.7071068286895752,
                0,
                0,
                0.7071068286895752
            ]
        },
        {
            "mesh" : 4,
            "name" : "Cube"
        }
    ],
    "materials" : [
        {
            "doubleSided" : true,
            "name" : "phongE3SG",
            "pbrMetallicRoughness" : {
                "baseColorFactor" : [
                    0,
                    0,
                    1,
                    1
                ],
                "metallicFactor" : 0,
                "roughnessFactor" : 0.6000000238418579
            }
        },
        {
            "doubleSided" : true,
            "name" : "Material",
            "pbrMetallicRoughness" : {
                "baseColorFactor" : [
                    0.800000011920929,
                    0.800000011920929,
                    0.800000011920929,
                    1
                ],
                "metallicFactor" : 0,
                "roughnessFactor" : 0.4000000059604645
            }
        }
    ],
    "meshes" : [
        {
            "name" : "Mesh_86",
            "primitives" : [
                {
                    "attributes" : {
                        "POSITION" : 0,
                        "NORMAL" : 1
                    },
                    "indices" : 2,
                    "material" : 0
                }
            ]
        },
        {
            "name" : "Mesh_87",
            "primitives" : [
                {
                    "attributes" : {
                        "POSITION" : 3,
                        "NORMAL" : 4
                    },
                    "indices" : 5,
                    "material" : 0
                }
            ]
        },
        {
            "name" : "Mesh_88",
            "primitives" : [
                {
                    "attributes" : {
                        "POSITION" : 6,
                        "NORMAL" : 7
                    },
                    "indices" : 8,
                    "material" : 0
                }
            ]
        },
        {
            "name" : "Mesh_89",
            "primitives" : [
                {
                    "attributes" : {
                        "POSITION" : 9,
                        "NORMAL" : 10
                    },
                    "indices" : 11,
                    "material" : 0
                }
            ]
        },
        {
            "name" : "Cube",
            "primitives" : [
                {
                    "attributes" : {
                        "POSITION" : 12,
                        "NORMAL" : 13,
                        "TEXCOORD_0" : 14
                    },
                    "indices" : 15,
                    "material" : 1
                }
            ]
        }
    ],
    "accessors" : [
        {
            "bufferView" : 0,
            "componentType" : 5126,
            "count" : 654,
            "max" : [
                8.70559024810791,
                -0.49714499711990356,
                36.01470184326172
            ],
            "min" : [
                -12.622900009155273,
                -11.519599914550781,
                -12.692700386047363
            ],
            "type" : "VEC3"
        },
        {
            "bufferView" : 1,
            "componentType" : 5126,
            "count" : 654,
            "type" : "VEC3"
        },
        {
            "bufferView" : 2,
            "componentType" : 5123,
            "count" : 3852,
            "type" : "SCALAR"
        },
        {
            "bufferView" : 3,
            "componentType" : 5126,
            "count" : 1142,
            "max" : [
                -10.703900337219238,
                2.06715989112854,
                5.375199794769287
            ],
            "min" : [
                -72.05690002441406,
                -21.587099075317383,
                -175.23699951171875
            ],
            "type" : "VEC3"
        },
        {
            "bufferView" : 4,
            "componentType" : 5126,
            "count" : 1142,
            "type" : "VEC3"
        },
        {
            "bufferView" : 5,
            "componentType" : 5123,
            "count" : 6720,
            "type" : "SCALAR"
        },
        {
            "bufferView" : 6,
            "componentType" : 5126,
            "count" : 1714,
            "max" : [
                73.19920349121094,
                7.84798002243042,
                1.7222900390625
            ],
            "min" : [
                7.458439826965332,
                -24.497900009155273,
                -173.6439971923828
            ],
            "type" : "VEC3"
        },
        {
            "bufferView" : 7,
            "componentType" : 5126,
            "count" : 1714,
            "type" : "VEC3"
        },
        {
            "bufferView" : 8,
            "componentType" : 5123,
            "count" : 10212,
            "type" : "SCALAR"
        },
        {
            "bufferView" : 9,
            "componentType" : 5126,
            "count" : 8335,
            "max" : [
                27.604999542236328,
                9.085180282592773,
                -35.01449966430664
            ],
            "min" : [
                -31.378799438476562,
                -23.589099884033203,
                -394.3900146484375
            ],
            "type" : "VEC3"
        },
        {
            "bufferView" : 10,
            "componentType" : 5126,
            "count" : 8335,
            "type" : "VEC3"
        },
        {
            "bufferView" : 11,
            "componentType" : 5123,
            "count" : 49914,
            "type" : "SCALAR"
        },
        {
            "bufferView" : 12,
            "componentType" : 5126,
            "count" : 24,
            "max" : [
                1,
                1,
                1
            ],
            "min" : [
                -1,
                -1,
                -1
            ],
            "type" : "VEC3"
        },
        {
            "bufferView" : 13,
            "componentType" : 5126,
            "count" : 24,
            "type" : "VEC3"
        },
        {
            "bufferView" : 14,
            "componentType" : 5126,
            "count" : 24,
            "type" : "VEC2"
        },
        {
            "bufferView" : 15,
            "componentType" : 5123,
            "count" : 36,
            "type" : "SCALAR"
        }
    ],
    "bufferViews" : [
        {
            "buffer" : 0,
            "byteLength" : 7848,
            "byteOffset" : 0
        },
        {
            "buffer" : 0,
            "byteLength" : 7848,
            "byteOffset" : 7848
        },
        {
            "buffer" : 0,
            "byteLength" : 7704,
            "byteOffset" : 15696
        },
        {
            "buffer" : 0,
            "byteLength" : 13704,
            "byteOffset" : 23400
        },
        {
            "buffer" : 0,
            "byteLength" : 13704,
            "byteOffset" : 37104
        },
        {
            "buffer" : 0,
            "byteLength" : 13440,
            "byteOffset" : 50808
        },
        {
            "buffer" : 0,
            "byteLength" : 20568,
            "byteOffset" : 64248
        },
        {
            "buffer" : 0,
            "byteLength" : 20568,
            "byteOffset" : 84816
        },
        {
            "buffer" : 0,
            "byteLength" : 20424,
            "byteOffset" : 105384
        },
        {
            "buffer" : 0,
            "byteLength" : 100020,
            "byteOffset" : 125808
        },
        {
            "buffer" : 0,
            "byteLength" : 100020,
            "byteOffset" : 225828
        },
        {
            "buffer" : 0,
            "byteLength" : 99828,
            "byteOffset" : 325848
        },
        {
            "buffer" : 0,
            "byteLength" : 288,
            "byteOffset" : 425676
        },
        {
            "buffer" : 0,
            "byteLength" : 288,
            "byteOffset" : 425964
        },
        {
            "buffer" : 0,
            "byteLength" : 192,
            "byteOffset" : 426252
        },
        {
            "buffer" : 0,
            "byteLength" : 72,
            "byteOffset" : 426444
        }
    ],
    "buffers" : [
        {
            "byteLength" : 426516,
            "uri" : "data:application/octet-stream;base64,"
        }
    ]
}
