{
    "asset" : {
        "generator" : "Khronos glTF Blender I/O v1.7.33",
        "version" : "2.0"
    },
    "scene" : 0,
    "scenes" : [
        {
            "name" : "Scene",
            "nodes" : [
                3,
                4
            ]
        }
    ],
    "nodes" : [
        {
            "mesh" : 0,
            "name" : "Mesh_101"
        },
        {
            "children" : [
                0
            ],
            "name" : "Cuerpo.obj.cleaner"
        },
        {
            "children" : [
                1
            ],
            "name" : "RootNode (model correction matrix)"
        },
        {
            "children" : [
                2
            ],
            "name" : "RootNode (gltf orientation matrix)",
            "rotation" : [
                -0.7071068286895752,
                0,
                0,
                0.7071068286895752
            ]
        },
        {
            "mesh" : 1,
            "name" : "Cube"
        }
    ],
    "materials" : [
        {
            "doubleSided" : true,
            "name" : "phongE4SG",
            "pbrMetallicRoughness" : {
                "baseColorFactor" : [
                    1,
                    0,
                    0,
                    1
                ],
                "metallicFactor" : 0,
                "roughnessFactor" : 0.6000000238418579
            }
        },
        {
            "doubleSided" : true,
            "name" : "Material",
            "pbrMetallicRoughness" : {
                "baseColorFactor" : [
                    0.800000011920929,
                    0.800000011920929,
                    0.800000011920929,
                    1
                ],
                "metallicFactor" : 0,
                "roughnessFactor" : 0.4000000059604645
            }
        }
    ],
    "meshes" : [
        {
            "name" : "Mesh_101",
            "primitives" : [
                {
                    "attributes" : {
                        "POSITION" : 0,
                        "NORMAL" : 1
                    },
                    "indices" : 2,
                    "material" : 0
                }
            ]
        },
        {
            "name" : "Cube",
            "primitives" : [
                {
                    "attributes" : {
                        "POSITION" : 3,
                        "NORMAL" : 4,
                        "TEXCOORD_0" : 5
                    },
                    "indices" : 6,
                    "material" : 1
                }
            ]
        }
    ],
    "accessors" : [
        {
            "bufferView" : 0,
            "componentType" : 5126,
            "count" : 12844,
            "max" : [
                15.592000007629395,
                3.761929988861084,
                -7.655360221862793
            ],
            "min" : [
                -7.450329780578613,
                -19.500600814819336,
                -44.36349868774414
            ],
            "type" : "VEC3"
        },
        {
            "bufferView" : 1,
            "componentType" : 5126,
            "count" : 12844,
            "type" : "VEC3"
        },
        {
            "bufferView" : 2,
            "componentType" : 5123,
            "count" : 77202,
            "type" : "SCALAR"
        },
        {
            "bufferView" : 3,
            "componentType" : 5126,
            "count" : 24,
            "max" : [
                1,
                1,
                1
            ],
            "min" : [
                -1,
                -1,
                -1
            ],
            "type" : "VEC3"
        },
        {
            "bufferView" : 4,
            "componentType" : 5126,
            "count" : 24,
            "type" : "VEC3"
        },
        {
            "bufferView" : 5,
            "componentType" : 5126,
            "count" : 24,
            "type" : "VEC2"
        },
        {
            "bufferView" : 6,
            "componentType" : 5123,
            "count" : 36,
            "type" : "SCALAR"
        }
    ],
    "bufferViews" : [
        {
            "buffer" : 0,
            "byteLength" : 154128,
            "byteOffset" : 0
        },
        {
            "buffer" : 0,
            "byteLength" : 154128,
            "byteOffset" : 154128
        },
        {
            "buffer" : 0,
            "byteLength" : 154404,
            "byteOffset" : 308256
        },
        {
            "buffer" : 0,
            "byteLength" : 288,
            "byteOffset" : 462660
        },
        {
            "buffer" : 0,
            "byteLength" : 288,
            "byteOffset" : 462948
        },
        {
            "buffer" : 0,
            "byteLength" : 192,
            "byteOffset" : 463236
        },
        {
            "buffer" : 0,
            "byteLength" : 72,
            "byteOffset" : 463428
        }
    ],
    "buffers" : [
        {
            "byteLength" : 463500,
            "uri" : "data:application/octet-stream;base64,"
        }
    ]
}
