{
    "asset" : {
        "generator" : "Khronos glTF Blender I/O v1.7.33",
        "version" : "2.0"
    },
    "scene" : 0,
    "scenes" : [
        {
            "name" : "Scene",
            "nodes" : [
                13,
                14
            ]
        }
    ],
    "nodes" : [
        {
            "mesh" : 0,
            "name" : "Mesh_100"
        },
        {
            "mesh" : 1,
            "name" : "Mesh_90"
        },
        {
            "mesh" : 2,
            "name" : "Mesh_91"
        },
        {
            "mesh" : 3,
            "name" : "Mesh_92"
        },
        {
            "mesh" : 4,
            "name" : "Mesh_93"
        },
        {
            "mesh" : 5,
            "name" : "Mesh_94"
        },
        {
            "mesh" : 6,
            "name" : "Mesh_95"
        },
        {
            "mesh" : 7,
            "name" : "Mesh_96"
        },
        {
            "mesh" : 8,
            "name" : "Mesh_97"
        },
        {
            "mesh" : 9,
            "name" : "Mesh_98"
        },
        {
            "mesh" : 10,
            "name" : "Mesh_99"
        },
        {
            "children" : [
                0,
                1,
                2,
                3,
                4,
                5,
                6,
                7,
                8,
                9,
                10
            ],
            "name" : "Cuerpo.obj.cleaner"
        },
        {
            "children" : [
                11
            ],
            "name" : "RootNode (model correction matrix)"
        },
        {
            "children" : [
                12
            ],
            "name" : "RootNode (gltf orientation matrix)",
            "rotation" : [
                -0.7071068286895752,
                0,
                0,
                0.7071068286895752
            ]
        },
        {
            "mesh" : 11,
            "name" : "Cube"
        }
    ],
    "materials" : [
        {
            "doubleSided" : true,
            "name" : "phongE4SG",
            "pbrMetallicRoughness" : {
                "baseColorFactor" : [
                    1,
                    0,
                    0,
                    1
                ],
                "metallicFactor" : 0,
                "roughnessFactor" : 0.6000000238418579
            }
        },
        {
            "doubleSided" : true,
            "name" : "Material",
            "pbrMetallicRoughness" : {
                "baseColorFactor" : [
                    0.800000011920929,
                    0.800000011920929,
                    0.800000011920929,
                    1
                ],
                "metallicFactor" : 0,
                "roughnessFactor" : 0.4000000059604645
            }
        }
    ],
    "meshes" : [
        {
            "name" : "Mesh_100",
            "primitives" : [
                {
                    "attributes" : {
                        "POSITION" : 0,
                        "NORMAL" : 1
                    },
                    "indices" : 2,
                    "material" : 0
                }
            ]
        },
        {
            "name" : "Mesh_90",
            "primitives" : [
                {
                    "attributes" : {
                        "POSITION" : 3,
                        "NORMAL" : 4
                    },
                    "indices" : 5,
                    "material" : 0
                }
            ]
        },
        {
            "name" : "Mesh_91",
            "primitives" : [
                {
                    "attributes" : {
                        "POSITION" : 6,
                        "NORMAL" : 7
                    },
                    "indices" : 8,
                    "material" : 0
                }
            ]
        },
        {
            "name" : "Mesh_92",
            "primitives" : [
                {
                    "attributes" : {
                        "POSITION" : 9,
                        "NORMAL" : 10
                    },
                    "indices" : 11,
                    "material" : 0
                }
            ]
        },
        {
            "name" : "Mesh_93",
            "primitives" : [
                {
                    "attributes" : {
                        "POSITION" : 12,
                        "NORMAL" : 13
                    },
                    "indices" : 14,
                    "material" : 0
                }
            ]
        },
        {
            "name" : "Mesh_94",
            "primitives" : [
                {
                    "attributes" : {
                        "POSITION" : 15,
                        "NORMAL" : 16
                    },
                    "indices" : 17,
                    "material" : 0
                }
            ]
        },
        {
            "name" : "Mesh_95",
            "primitives" : [
                {
                    "attributes" : {
                        "POSITION" : 18,
                        "NORMAL" : 19
                    },
                    "indices" : 20,
                    "material" : 0
                }
            ]
        },
        {
            "name" : "Mesh_96",
            "primitives" : [
                {
                    "attributes" : {
                        "POSITION" : 21,
                        "NORMAL" : 22
                    },
                    "indices" : 23,
                    "material" : 0
                }
            ]
        },
        {
            "name" : "Mesh_97",
            "primitives" : [
                {
                    "attributes" : {
                        "POSITION" : 24,
                        "NORMAL" : 25
                    },
                    "indices" : 26,
                    "material" : 0
                }
            ]
        },
        {
            "name" : "Mesh_98",
            "primitives" : [
                {
                    "attributes" : {
                        "POSITION" : 27,
                        "NORMAL" : 28
                    },
                    "indices" : 29,
                    "material" : 0
                }
            ]
        },
        {
            "name" : "Mesh_99",
            "primitives" : [
                {
                    "attributes" : {
                        "POSITION" : 30,
                        "NORMAL" : 31
                    },
                    "indices" : 32,
                    "material" : 0
                }
            ]
        },
        {
            "name" : "Cube",
            "primitives" : [
                {
                    "attributes" : {
                        "POSITION" : 33,
                        "NORMAL" : 34,
                        "TEXCOORD_0" : 35
                    },
                    "indices" : 36,
                    "material" : 1
                }
            ]
        }
    ],
    "accessors" : [
        {
            "bufferView" : 0,
            "componentType" : 5126,
            "count" : 7735,
            "max" : [
                39.694801330566406,
                9.082539558410645,
                -13.545999526977539
            ],
            "min" : [
                -43.62739944458008,
                -23.58489990234375,
                -394.47601318359375
            ],
            "type" : "VEC3"
        },
        {
            "bufferView" : 1,
            "componentType" : 5126,
            "count" : 7735,
            "type" : "VEC3"
        },
        {
            "bufferView" : 2,
            "componentType" : 5123,
            "count" : 46311,
            "type" : "SCALAR"
        },
        {
            "bufferView" : 3,
            "componentType" : 5126,
            "count" : 1697,
            "max" : [
                15.66510009765625,
                -2.8334500789642334,
                -28.685400009155273
            ],
            "min" : [
                -4.270430088043213,
                -18.665199279785156,
                -43.553199768066406
            ],
            "type" : "VEC3"
        },
        {
            "bufferView" : 4,
            "componentType" : 5126,
            "count" : 1697,
            "type" : "VEC3"
        },
        {
            "bufferView" : 5,
            "componentType" : 5123,
            "count" : 9855,
            "type" : "SCALAR"
        },
        {
            "bufferView" : 6,
            "componentType" : 5126,
            "count" : 1548,
            "max" : [
                15.71780014038086,
                -1.8400299549102783,
                -26.1427001953125
            ],
            "min" : [
                -4.1232099533081055,
                -19.02280044555664,
                -42.448699951171875
            ],
            "type" : "VEC3"
        },
        {
            "bufferView" : 7,
            "componentType" : 5126,
            "count" : 1548,
            "type" : "VEC3"
        },
        {
            "bufferView" : 8,
            "componentType" : 5123,
            "count" : 9156,
            "type" : "SCALAR"
        },
        {
            "bufferView" : 9,
            "componentType" : 5126,
            "count" : 1176,
            "max" : [
                15.376799583435059,
                1.9103200435638428,
                37.866600036621094
            ],
            "min" : [
                -12.083600044250488,
                -16.62649917602539,
                -42.66109848022461
            ],
            "type" : "VEC3"
        },
        {
            "bufferView" : 10,
            "componentType" : 5126,
            "count" : 1176,
            "type" : "VEC3"
        },
        {
            "bufferView" : 11,
            "componentType" : 5123,
            "count" : 6984,
            "type" : "SCALAR"
        },
        {
            "bufferView" : 12,
            "componentType" : 5126,
            "count" : 1137,
            "max" : [
                1.9703700542449951,
                -6.030509948730469,
                -27.827499389648438
            ],
            "min" : [
                -1.999019980430603,
                -11.227899551391602,
                -36.91579818725586
            ],
            "type" : "VEC3"
        },
        {
            "bufferView" : 13,
            "componentType" : 5126,
            "count" : 1137,
            "type" : "VEC3"
        },
        {
            "bufferView" : 14,
            "componentType" : 5123,
            "count" : 6846,
            "type" : "SCALAR"
        },
        {
            "bufferView" : 15,
            "componentType" : 5126,
            "count" : 1454,
            "max" : [
                12.287400245666504,
                1.8028600215911865,
                4.617909908294678
            ],
            "min" : [
                -71.90640258789062,
                -20.97170066833496,
                -175.2429962158203
            ],
            "type" : "VEC3"
        },
        {
            "bufferView" : 16,
            "componentType" : 5126,
            "count" : 1454,
            "type" : "VEC3"
        },
        {
            "bufferView" : 17,
            "componentType" : 5123,
            "count" : 8628,
            "type" : "SCALAR"
        },
        {
            "bufferView" : 18,
            "componentType" : 5126,
            "count" : 792,
            "max" : [
                11.960700035095215,
                -3.0640599727630615,
                -25.046600341796875
            ],
            "min" : [
                4.973659992218018,
                -9.749480247497559,
                -33.923301696777344
            ],
            "type" : "VEC3"
        },
        {
            "bufferView" : 19,
            "componentType" : 5126,
            "count" : 792,
            "type" : "VEC3"
        },
        {
            "bufferView" : 20,
            "componentType" : 5123,
            "count" : 4752,
            "type" : "SCALAR"
        },
        {
            "bufferView" : 21,
            "componentType" : 5126,
            "count" : 940,
            "max" : [
                70.2426986694336,
                5.53879976272583,
                4.083759784698486
            ],
            "min" : [
                3.7766098976135254,
                -23.98740005493164,
                -173.6840057373047
            ],
            "type" : "VEC3"
        },
        {
            "bufferView" : 22,
            "componentType" : 5126,
            "count" : 940,
            "type" : "VEC3"
        },
        {
            "bufferView" : 23,
            "componentType" : 5123,
            "count" : 5580,
            "type" : "SCALAR"
        },
        {
            "bufferView" : 24,
            "componentType" : 5126,
            "count" : 972,
            "max" : [
                7.217939853668213,
                -6.570099830627441,
                -25.8843994140625
            ],
            "min" : [
                3.435879945755005,
                -11.011300086975098,
                -29.309900283813477
            ],
            "type" : "VEC3"
        },
        {
            "bufferView" : 25,
            "componentType" : 5126,
            "count" : 972,
            "type" : "VEC3"
        },
        {
            "bufferView" : 26,
            "componentType" : 5123,
            "count" : 5631,
            "type" : "SCALAR"
        },
        {
            "bufferView" : 27,
            "componentType" : 5126,
            "count" : 963,
            "max" : [
                6.855480194091797,
                -11.150500297546387,
                -23.560699462890625
            ],
            "min" : [
                1.8752100467681885,
                -15.659600257873535,
                -26.089799880981445
            ],
            "type" : "VEC3"
        },
        {
            "bufferView" : 28,
            "componentType" : 5126,
            "count" : 963,
            "type" : "VEC3"
        },
        {
            "bufferView" : 29,
            "componentType" : 5123,
            "count" : 5634,
            "type" : "SCALAR"
        },
        {
            "bufferView" : 30,
            "componentType" : 5126,
            "count" : 944,
            "max" : [
                6.744060039520264,
                -12.960100173950195,
                -24.94179916381836
            ],
            "min" : [
                -2.8132500648498535,
                -19.31450080871582,
                -37.52259826660156
            ],
            "type" : "VEC3"
        },
        {
            "bufferView" : 31,
            "componentType" : 5126,
            "count" : 944,
            "type" : "VEC3"
        },
        {
            "bufferView" : 32,
            "componentType" : 5123,
            "count" : 5688,
            "type" : "SCALAR"
        },
        {
            "bufferView" : 33,
            "componentType" : 5126,
            "count" : 24,
            "max" : [
                1,
                1,
                1
            ],
            "min" : [
                -1,
                -1,
                -1
            ],
            "type" : "VEC3"
        },
        {
            "bufferView" : 34,
            "componentType" : 5126,
            "count" : 24,
            "type" : "VEC3"
        },
        {
            "bufferView" : 35,
            "componentType" : 5126,
            "count" : 24,
            "type" : "VEC2"
        },
        {
            "bufferView" : 36,
            "componentType" : 5123,
            "count" : 36,
            "type" : "SCALAR"
        }
    ],
    "bufferViews" : [
        {
            "buffer" : 0,
            "byteLength" : 92820,
            "byteOffset" : 0
        },
        {
            "buffer" : 0,
            "byteLength" : 92820,
            "byteOffset" : 92820
        },
        {
            "buffer" : 0,
            "byteLength" : 92622,
            "byteOffset" : 185640
        },
        {
            "buffer" : 0,
            "byteLength" : 20364,
            "byteOffset" : 278264
        },
        {
            "buffer" : 0,
            "byteLength" : 20364,
            "byteOffset" : 298628
        },
        {
            "buffer" : 0,
            "byteLength" : 19710,
            "byteOffset" : 318992
        },
        {
            "buffer" : 0,
            "byteLength" : 18576,
            "byteOffset" : 338704
        },
        {
            "buffer" : 0,
            "byteLength" : 18576,
            "byteOffset" : 357280
        },
        {
            "buffer" : 0,
            "byteLength" : 18312,
            "byteOffset" : 375856
        },
        {
            "buffer" : 0,
            "byteLength" : 14112,
            "byteOffset" : 394168
        },
        {
            "buffer" : 0,
            "byteLength" : 14112,
            "byteOffset" : 408280
        },
        {
            "buffer" : 0,
            "byteLength" : 13968,
            "byteOffset" : 422392
        },
        {
            "buffer" : 0,
            "byteLength" : 13644,
            "byteOffset" : 436360
        },
        {
            "buffer" : 0,
            "byteLength" : 13644,
            "byteOffset" : 450004
        },
        {
            "buffer" : 0,
            "byteLength" : 13692,
            "byteOffset" : 463648
        },
        {
            "buffer" : 0,
            "byteLength" : 17448,
            "byteOffset" : 477340
        },
        {
            "buffer" : 0,
            "byteLength" : 17448,
            "byteOffset" : 494788
        },
        {
            "buffer" : 0,
            "byteLength" : 17256,
            "byteOffset" : 512236
        },
        {
            "buffer" : 0,
            "byteLength" : 9504,
            "byteOffset" : 529492
        },
        {
            "buffer" : 0,
            "byteLength" : 9504,
            "byteOffset" : 538996
        },
        {
            "buffer" : 0,
            "byteLength" : 9504,
            "byteOffset" : 548500
        },
        {
            "buffer" : 0,
            "byteLength" : 11280,
            "byteOffset" : 558004
        },
        {
            "buffer" : 0,
            "byteLength" : 11280,
            "byteOffset" : 569284
        },
        {
            "buffer" : 0,
            "byteLength" : 11160,
            "byteOffset" : 580564
        },
        {
            "buffer" : 0,
            "byteLength" : 11664,
            "byteOffset" : 591724
        },
        {
            "buffer" : 0,
            "byteLength" : 11664,
            "byteOffset" : 603388
        },
        {
            "buffer" : 0,
            "byteLength" : 11262,
            "byteOffset" : 615052
        },
        {
            "buffer" : 0,
            "byteLength" : 11556,
            "byteOffset" : 626316
        },
        {
            "buffer" : 0,
            "byteLength" : 11556,
            "byteOffset" : 637872
        },
        {
            "buffer" : 0,
            "byteLength" : 11268,
            "byteOffset" : 649428
        },
        {
            "buffer" : 0,
            "byteLength" : 11328,
            "byteOffset" : 660696
        },
        {
            "buffer" : 0,
            "byteLength" : 11328,
            "byteOffset" : 672024
        },
        {
            "buffer" : 0,
            "byteLength" : 11376,
            "byteOffset" : 683352
        },
        {
            "buffer" : 0,
            "byteLength" : 288,
            "byteOffset" : 694728
        },
        {
            "buffer" : 0,
            "byteLength" : 288,
            "byteOffset" : 695016
        },
        {
            "buffer" : 0,
            "byteLength" : 192,
            "byteOffset" : 695304
        },
        {
            "buffer" : 0,
            "byteLength" : 72,
            "byteOffset" : 695496
        }
    ],
    "buffers" : [
        {
            "byteLength" : 695568,
            "uri" : "data:application/octet-stream;base64,"
        }
    ]
}
