{
    "asset" : {
        "generator" : "Khronos glTF Blender I/O v1.7.33",
        "version" : "2.0"
    },
    "scene" : 0,
    "scenes" : [
        {
            "name" : "Scene",
            "nodes" : [
                35,
                36
            ]
        }
    ],
    "nodes" : [
        {
            "name" : "Mesh_11.001"
        },
        {
            "name" : "Mesh_12.001"
        },
        {
            "name" : "Mesh_13.001"
        },
        {
            "name" : "Mesh_14"
        },
        {
            "name" : "Mesh_14.001"
        },
        {
            "name" : "Mesh_15"
        },
        {
            "name" : "Mesh_15.001"
        },
        {
            "name" : "Mesh_17.001"
        },
        {
            "name" : "Mesh_18.001"
        },
        {
            "name" : "Mesh_21.001"
        },
        {
            "name" : "Mesh_22"
        },
        {
            "name" : "Mesh_23"
        },
        {
            "name" : "Mesh_26"
        },
        {
            "name" : "Mesh_27"
        },
        {
            "name" : "Mesh_27.001"
        },
        {
            "name" : "Mesh_29"
        },
        {
            "name" : "Mesh_29.001"
        },
        {
            "mesh" : 0,
            "name" : "Mesh_32"
        },
        {
            "name" : "Mesh_35"
        },
        {
            "mesh" : 1,
            "name" : "Mesh_47"
        },
        {
            "mesh" : 2,
            "name" : "Mesh_49"
        },
        {
            "mesh" : 3,
            "name" : "Mesh_52"
        },
        {
            "mesh" : 4,
            "name" : "Mesh_55"
        },
        {
            "mesh" : 5,
            "name" : "Mesh_56"
        },
        {
            "mesh" : 6,
            "name" : "Mesh_63"
        },
        {
            "mesh" : 7,
            "name" : "Mesh_69"
        },
        {
            "mesh" : 8,
            "name" : "Mesh_7"
        },
        {
            "name" : "Mesh_7.001"
        },
        {
            "mesh" : 9,
            "name" : "Mesh_71"
        },
        {
            "name" : "Mesh_8"
        },
        {
            "name" : "Mesh_8.001"
        },
        {
            "mesh" : 10,
            "name" : "Mesh_9"
        },
        {
            "name" : "Mesh_9.001"
        },
        {
            "children" : [
                0,
                1,
                2,
                3,
                4,
                5,
                6,
                7,
                8,
                9,
                10,
                11,
                12,
                13,
                14,
                15,
                16,
                17,
                18,
                19,
                20,
                21,
                22,
                23,
                24,
                25,
                26,
                27,
                28,
                29,
                30,
                31,
                32
            ],
            "name" : "Cuerpo.obj.cleaner"
        },
        {
            "children" : [
                33
            ],
            "name" : "RootNode (model correction matrix)"
        },
        {
            "children" : [
                34
            ],
            "name" : "RootNode (gltf orientation matrix)",
            "rotation" : [
                -0.7071068286895752,
                0,
                0,
                0.7071068286895752
            ]
        },
        {
            "mesh" : 11,
            "name" : "Cube"
        }
    ],
    "materials" : [
        {
            "doubleSided" : true,
            "name" : "phongE1SG",
            "pbrMetallicRoughness" : {
                "baseColorFactor" : [
                    1,
                    1,
                    0.8500000238418579,
                    1
                ],
                "metallicFactor" : 0,
                "roughnessFactor" : 0.6000000238418579
            }
        },
        {
            "doubleSided" : true,
            "name" : "Material",
            "pbrMetallicRoughness" : {
                "baseColorFactor" : [
                    0.800000011920929,
                    0.800000011920929,
                    0.800000011920929,
                    1
                ],
                "metallicFactor" : 0,
                "roughnessFactor" : 0.4000000059604645
            }
        }
    ],
    "meshes" : [
        {
            "name" : "Mesh_32",
            "primitives" : [
                {
                    "attributes" : {
                        "POSITION" : 0,
                        "NORMAL" : 1
                    },
                    "indices" : 2,
                    "material" : 0
                }
            ]
        },
        {
            "name" : "Mesh_47",
            "primitives" : [
                {
                    "attributes" : {
                        "POSITION" : 3,
                        "NORMAL" : 4
                    },
                    "indices" : 5,
                    "material" : 0
                }
            ]
        },
        {
            "name" : "Mesh_49",
            "primitives" : [
                {
                    "attributes" : {
                        "POSITION" : 6,
                        "NORMAL" : 7
                    },
                    "indices" : 8,
                    "material" : 0
                }
            ]
        },
        {
            "name" : "Mesh_52",
            "primitives" : [
                {
                    "attributes" : {
                        "POSITION" : 9,
                        "NORMAL" : 10
                    },
                    "indices" : 11,
                    "material" : 0
                }
            ]
        },
        {
            "name" : "Mesh_55",
            "primitives" : [
                {
                    "attributes" : {
                        "POSITION" : 12,
                        "NORMAL" : 13
                    },
                    "indices" : 14,
                    "material" : 0
                }
            ]
        },
        {
            "name" : "Mesh_56",
            "primitives" : [
                {
                    "attributes" : {
                        "POSITION" : 15,
                        "NORMAL" : 16
                    },
                    "indices" : 17,
                    "material" : 0
                }
            ]
        },
        {
            "name" : "Mesh_63",
            "primitives" : [
                {
                    "attributes" : {
                        "POSITION" : 18,
                        "NORMAL" : 19
                    },
                    "indices" : 20,
                    "material" : 0
                }
            ]
        },
        {
            "name" : "Mesh_69",
            "primitives" : [
                {
                    "attributes" : {
                        "POSITION" : 21,
                        "NORMAL" : 22
                    },
                    "indices" : 23,
                    "material" : 0
                }
            ]
        },
        {
            "name" : "Mesh_7",
            "primitives" : [
                {
                    "attributes" : {
                        "POSITION" : 24,
                        "NORMAL" : 25
                    },
                    "indices" : 26,
                    "material" : 0
                }
            ]
        },
        {
            "name" : "Mesh_71",
            "primitives" : [
                {
                    "attributes" : {
                        "POSITION" : 27,
                        "NORMAL" : 28
                    },
                    "indices" : 29,
                    "material" : 0
                }
            ]
        },
        {
            "name" : "Mesh_9",
            "primitives" : [
                {
                    "attributes" : {
                        "POSITION" : 30,
                        "NORMAL" : 31
                    },
                    "indices" : 32,
                    "material" : 0
                }
            ]
        },
        {
            "name" : "Cube",
            "primitives" : [
                {
                    "attributes" : {
                        "POSITION" : 33,
                        "NORMAL" : 34,
                        "TEXCOORD_0" : 35
                    },
                    "indices" : 36,
                    "material" : 1
                }
            ]
        }
    ],
    "accessors" : [
        {
            "bufferView" : 0,
            "componentType" : 5126,
            "count" : 3468,
            "max" : [
                7.273819923400879,
                13.644599914550781,
                3.166790008544922
            ],
            "min" : [
                -6.9054999351501465,
                -5.887589931488037,
                -129.0570068359375
            ],
            "type" : "VEC3"
        },
        {
            "bufferView" : 1,
            "componentType" : 5126,
            "count" : 3468,
            "type" : "VEC3"
        },
        {
            "bufferView" : 2,
            "componentType" : 5123,
            "count" : 3468,
            "type" : "SCALAR"
        },
        {
            "bufferView" : 3,
            "componentType" : 5126,
            "count" : 1192,
            "max" : [
                8.481749534606934,
                21.3789005279541,
                -158.3990020751953
            ],
            "min" : [
                -8.481749534606934,
                9.692079544067383,
                -168.10000610351562
            ],
            "type" : "VEC3"
        },
        {
            "bufferView" : 4,
            "componentType" : 5126,
            "count" : 1192,
            "type" : "VEC3"
        },
        {
            "bufferView" : 5,
            "componentType" : 5123,
            "count" : 7140,
            "type" : "SCALAR"
        },
        {
            "bufferView" : 6,
            "componentType" : 5126,
            "count" : 1236,
            "max" : [
                7.024280071258545,
                8.483149528503418,
                19.95789909362793
            ],
            "min" : [
                -7.024280071258545,
                -3.3968300819396973,
                13.296500205993652
            ],
            "type" : "VEC3"
        },
        {
            "bufferView" : 7,
            "componentType" : 5126,
            "count" : 1236,
            "type" : "VEC3"
        },
        {
            "bufferView" : 8,
            "componentType" : 5123,
            "count" : 7440,
            "type" : "SCALAR"
        },
        {
            "bufferView" : 9,
            "componentType" : 5126,
            "count" : 1344,
            "max" : [
                7.402210235595703,
                7.96012020111084,
                23.99839973449707
            ],
            "min" : [
                -7.402210235595703,
                -3.733690023422241,
                17.14419937133789
            ],
            "type" : "VEC3"
        },
        {
            "bufferView" : 10,
            "componentType" : 5126,
            "count" : 1344,
            "type" : "VEC3"
        },
        {
            "bufferView" : 11,
            "componentType" : 5123,
            "count" : 8088,
            "type" : "SCALAR"
        },
        {
            "bufferView" : 12,
            "componentType" : 5126,
            "count" : 1438,
            "max" : [
                7.5717902183532715,
                9.669859886169434,
                15.831299781799316
            ],
            "min" : [
                -7.5717902183532715,
                -3.193579912185669,
                9.391900062561035
            ],
            "type" : "VEC3"
        },
        {
            "bufferView" : 13,
            "componentType" : 5126,
            "count" : 1438,
            "type" : "VEC3"
        },
        {
            "bufferView" : 14,
            "componentType" : 5123,
            "count" : 8676,
            "type" : "SCALAR"
        },
        {
            "bufferView" : 15,
            "componentType" : 5126,
            "count" : 1573,
            "max" : [
                8.109259605407715,
                11.593199729919434,
                12.2298002243042
            ],
            "min" : [
                -8.109259605407715,
                -2.7103700637817383,
                5.49832010269165
            ],
            "type" : "VEC3"
        },
        {
            "bufferView" : 16,
            "componentType" : 5126,
            "count" : 1573,
            "type" : "VEC3"
        },
        {
            "bufferView" : 17,
            "componentType" : 5123,
            "count" : 9486,
            "type" : "SCALAR"
        },
        {
            "bufferView" : 18,
            "componentType" : 5126,
            "count" : 4284,
            "max" : [
                16.489500045776367,
                24.4419002532959,
                -122.27400207519531
            ],
            "min" : [
                -16.245399475097656,
                -0.3396739959716797,
                -159.35800170898438
            ],
            "type" : "VEC3"
        },
        {
            "bufferView" : 19,
            "componentType" : 5126,
            "count" : 4284,
            "type" : "VEC3"
        },
        {
            "bufferView" : 20,
            "componentType" : 5123,
            "count" : 25896,
            "type" : "SCALAR"
        },
        {
            "bufferView" : 21,
            "componentType" : 5126,
            "count" : 11005,
            "max" : [
                10.103599548339844,
                23.249500274658203,
                8.061949729919434
            ],
            "min" : [
                -10.103599548339844,
                -1.3578799962997437,
                -37.254600524902344
            ],
            "type" : "VEC3"
        },
        {
            "bufferView" : 22,
            "componentType" : 5126,
            "count" : 11005,
            "type" : "VEC3"
        },
        {
            "bufferView" : 23,
            "componentType" : 5123,
            "count" : 60165,
            "type" : "SCALAR"
        },
        {
            "bufferView" : 24,
            "componentType" : 5126,
            "count" : 228,
            "max" : [
                3.197819948196411,
                2.4862799644470215,
                7.003419876098633
            ],
            "min" : [
                -3.197819948196411,
                -1.4838800430297852,
                5.038949966430664
            ],
            "type" : "VEC3"
        },
        {
            "bufferView" : 25,
            "componentType" : 5126,
            "count" : 228,
            "type" : "VEC3"
        },
        {
            "bufferView" : 26,
            "componentType" : 5123,
            "count" : 1356,
            "type" : "SCALAR"
        },
        {
            "bufferView" : 27,
            "componentType" : 5126,
            "count" : 20126,
            "max" : [
                14.371700286865234,
                25.640100479125977,
                -30.264400482177734
            ],
            "min" : [
                -14.371700286865234,
                -6.474249839782715,
                -133.2050018310547
            ],
            "type" : "VEC3"
        },
        {
            "bufferView" : 28,
            "componentType" : 5126,
            "count" : 20126,
            "type" : "VEC3"
        },
        {
            "bufferView" : 29,
            "componentType" : 5123,
            "count" : 107226,
            "type" : "SCALAR"
        },
        {
            "bufferView" : 30,
            "componentType" : 5126,
            "count" : 238,
            "max" : [
                3.0340499877929688,
                1.5166599750518799,
                10.912699699401855
            ],
            "min" : [
                -2.970439910888672,
                -2.9095499515533447,
                8.431110382080078
            ],
            "type" : "VEC3"
        },
        {
            "bufferView" : 31,
            "componentType" : 5126,
            "count" : 238,
            "type" : "VEC3"
        },
        {
            "bufferView" : 32,
            "componentType" : 5123,
            "count" : 1416,
            "type" : "SCALAR"
        },
        {
            "bufferView" : 33,
            "componentType" : 5126,
            "count" : 24,
            "max" : [
                1,
                1,
                1
            ],
            "min" : [
                -1,
                -1,
                -1
            ],
            "type" : "VEC3"
        },
        {
            "bufferView" : 34,
            "componentType" : 5126,
            "count" : 24,
            "type" : "VEC3"
        },
        {
            "bufferView" : 35,
            "componentType" : 5126,
            "count" : 24,
            "type" : "VEC2"
        },
        {
            "bufferView" : 36,
            "componentType" : 5123,
            "count" : 36,
            "type" : "SCALAR"
        }
    ],
    "bufferViews" : [
        {
            "buffer" : 0,
            "byteLength" : 41616,
            "byteOffset" : 0
        },
        {
            "buffer" : 0,
            "byteLength" : 41616,
            "byteOffset" : 41616
        },
        {
            "buffer" : 0,
            "byteLength" : 6936,
            "byteOffset" : 83232
        },
        {
            "buffer" : 0,
            "byteLength" : 14304,
            "byteOffset" : 90168
        },
        {
            "buffer" : 0,
            "byteLength" : 14304,
            "byteOffset" : 104472
        },
        {
            "buffer" : 0,
            "byteLength" : 14280,
            "byteOffset" : 118776
        },
        {
            "buffer" : 0,
            "byteLength" : 14832,
            "byteOffset" : 133056
        },
        {
            "buffer" : 0,
            "byteLength" : 14832,
            "byteOffset" : 147888
        },
        {
            "buffer" : 0,
            "byteLength" : 14880,
            "byteOffset" : 162720
        },
        {
            "buffer" : 0,
            "byteLength" : 16128,
            "byteOffset" : 177600
        },
        {
            "buffer" : 0,
            "byteLength" : 16128,
            "byteOffset" : 193728
        },
        {
            "buffer" : 0,
            "byteLength" : 16176,
            "byteOffset" : 209856
        },
        {
            "buffer" : 0,
            "byteLength" : 17256,
            "byteOffset" : 226032
        },
        {
            "buffer" : 0,
            "byteLength" : 17256,
            "byteOffset" : 243288
        },
        {
            "buffer" : 0,
            "byteLength" : 17352,
            "byteOffset" : 260544
        },
        {
            "buffer" : 0,
            "byteLength" : 18876,
            "byteOffset" : 277896
        },
        {
            "buffer" : 0,
            "byteLength" : 18876,
            "byteOffset" : 296772
        },
        {
            "buffer" : 0,
            "byteLength" : 18972,
            "byteOffset" : 315648
        },
        {
            "buffer" : 0,
            "byteLength" : 51408,
            "byteOffset" : 334620
        },
        {
            "buffer" : 0,
            "byteLength" : 51408,
            "byteOffset" : 386028
        },
        {
            "buffer" : 0,
            "byteLength" : 51792,
            "byteOffset" : 437436
        },
        {
            "buffer" : 0,
            "byteLength" : 132060,
            "byteOffset" : 489228
        },
        {
            "buffer" : 0,
            "byteLength" : 132060,
            "byteOffset" : 621288
        },
        {
            "buffer" : 0,
            "byteLength" : 120330,
            "byteOffset" : 753348
        },
        {
            "buffer" : 0,
            "byteLength" : 2736,
            "byteOffset" : 873680
        },
        {
            "buffer" : 0,
            "byteLength" : 2736,
            "byteOffset" : 876416
        },
        {
            "buffer" : 0,
            "byteLength" : 2712,
            "byteOffset" : 879152
        },
        {
            "buffer" : 0,
            "byteLength" : 241512,
            "byteOffset" : 881864
        },
        {
            "buffer" : 0,
            "byteLength" : 241512,
            "byteOffset" : 1123376
        },
        {
            "buffer" : 0,
            "byteLength" : 214452,
            "byteOffset" : 1364888
        },
        {
            "buffer" : 0,
            "byteLength" : 2856,
            "byteOffset" : 1579340
        },
        {
            "buffer" : 0,
            "byteLength" : 2856,
            "byteOffset" : 1582196
        },
        {
            "buffer" : 0,
            "byteLength" : 2832,
            "byteOffset" : 1585052
        },
        {
            "buffer" : 0,
            "byteLength" : 288,
            "byteOffset" : 1587884
        },
        {
            "buffer" : 0,
            "byteLength" : 288,
            "byteOffset" : 1588172
        },
        {
            "buffer" : 0,
            "byteLength" : 192,
            "byteOffset" : 1588460
        },
        {
            "buffer" : 0,
            "byteLength" : 72,
            "byteOffset" : 1588652
        }
    ],
    "buffers" : [
        {
            "byteLength" : 1588724,
            "uri" : "data:application/octet-stream;base64,"
        }
    ]
}
